# File produced by Open Asset Import Library (http://www.assimp.sf.net)
# (assimp v3.1.206520482)

mtllib PBR - Metallic Roughness.mtl

# 44 vertex positions
v 0.787313 0.282549 0
v 0.537358 0.352553 -0.473777
v 0.347157 0.541621 -0.26652
v 0.531325 0.536414 0
v -0.104189 0.382076 -0.306617
v -0.151851 0.218922 -0.590253
v -0.493767 0.382076 -0.223059
v -0.645898 0.334965 -0.272845
v -0.629354 0.265455 0.390325
v -0.793252 0.151341 0.343864
v -0.263075 0.264337 0.662912
v -0.246524 0.133699 0.732199
v 0.36346 0.3906 0.248738
v 0.510113 0.126198 0.400946
v 0 0.382076 0
v -0.111242 -0.436085 -0.552842
v 0.529843 -0.369224 -0.492134
v 0.322217 -0.541621 -0.370689
v -0.0912337 -0.541621 -0.421175
v 0.498021 -0.541621 0
v 0.756457 -0.359739 -0.00339699
v -0.717112 -0.430021 -0.44922
v -0.556915 -0.541621 -0.349677
v -0.527485 -0.444328 0.171469
v -0.411368 -0.541621 0.11793
v -0.10924 -0.440796 0.772395
v -0.079212 -0.541621 0.621817
v 0.403624 -0.436978 0.656527
v 0.313348 -0.541621 0.532509
v 0 -0.54162 0
v -0.209826 0.0729635 -0.724714
v 0.599255 -0.091289 -0.723206
v 0.590718 -0.255339 -0.680449
v -0.188773 -0.267437 -0.705486
v 0.775064 -0.276875 -0.339635
v 0.7831 0.116188 -0.124473
v -0.85902 -0.10703 -0.465636
v -0.83908 -0.273465 -0.485284
v -0.868797 -0.0908759 0.406997
v -0.817922 -0.249684 0.375534
v -0.228596 -0.131019 0.897291
v -0.183613 -0.296312 0.891125
v 0.420295 -0.11454 0.719145
v 0.412271 -0.281749 0.736589

# 51 UV coordinates
vt 0.471022 0.344065 0
vt 0.419323 0.44379 0
vt 0.367804 0.388699 0
vt 0.401803 0.337372 0
vt 0.268215 0.40835 0
vt 0.254735 0.489521 0
vt 0.184812 0.379562 0
vt 0.148715 0.388265 0
vt 0.161813 0.226152 0
vt 0.113746 0.226537 0
vt 0.252608 0.164639 0
vt 0.258789 0.126823 0
vt 0.383461 0.271111 0
vt 0.442143 0.216767 0
vt 0.293576 0.328306 0
vt 0.571705 0.781601 0
vt 0.582611 0.592894 0
vt 0.627457 0.665157 0
vt 0.618088 0.773939 0
vt 0.71828 0.628535 0
vt 0.711121 0.556709 0
vt 0.627045 0.940256 0
vt 0.652694 0.890203 0
vt 0.795989 0.88909 0
vt 0.7738 0.851464 0
vt 0.942956 0.750643 0
vt 0.8946 0.746542 0
vt 0.895493 0.614437 0
vt 0.860511 0.65112 0
vt 0.729648 0.749003 0
vt 0.236022 0.535001 0
vt 0.48125 0.542405 0
vt 0.500987 0.570518 0
vt 0.222604 0.615918 0
vt 0.597429 0.433943 0
vt 0.508049 0.372579 0
vt 0.0455706 0.452109 0
vt 0.0137818 0.473619 0
vt 0.0584486 0.192497 0
vt 0.0241211 0.174556 0
vt 0.260219 0.0525688 0
vt 0.265079 0.0102878 0
vt 0.45221 0.10983 0
vt 0.481913 0.0787874 0
vt 0.524556 0.572551 0
vt 0.512373 0.807991 0
vt 0.611831 0.993497 0
vt 0.86361 0.972513 0
vt 0.993268 0.771783 0
vt 0.931759 0.581706 0
vt 0.631544 0.513552 0

# 108 vertex normals
vn 0.607379 0.743178 -0.280674
vn 0.607379 0.743178 -0.280674
vn 0.607379 0.743178 -0.280674
vn -0.11588 0.81716 -0.564643
vn -0.120405 0.789691 -0.601573
vn -0.120405 0.789691 -0.601573
vn -0.11544 0.819661 -0.561096
vn -0.105723 0.868474 -0.48433
vn -0.105723 0.868474 -0.48433
vn -0.551901 0.696561 0.458485
vn -0.476808 0.872906 0.103388
vn -0.476808 0.872906 0.103388
vn -0.555781 0.585585 0.590082
vn 0.10364 0.563775 0.8194
vn -0.0457929 0.580943 0.812655
vn 0.353577 0.564342 0.74599
vn 0.30507 0.608118 0.732888
vn 0.516258 0.584828 0.625662
vn 0.516258 0.584828 0.625662
vn 0.516258 0.584828 0.625662
vn -0.293816 0.938889 0.17933
vn -0.152073 0.987018 0.0516746
vn -0.144286 0.978128 0.149824
vn -0.0654052 0.9873 0.144782
vn -0.0894426 0.984636 0.149973
vn -0.10261 0.985609 0.134333
vn -0.171277 0.960951 0.217342
vn -0.268125 0.923045 0.275855
vn 0.0933942 -0.748138 -0.656937
vn 0.0890974 -0.754278 -0.650482
vn 0.118171 -0.711029 -0.693162
vn 0.118171 -0.711029 -0.693162
vn 0.575884 -0.817415 -0.0137894
vn 0.543986 -0.802266 -0.245861
vn 0.510584 -0.823834 -0.246174
vn 0.564618 -0.823896 -0.0490155
vn -0.183382 -0.625242 -0.75858
vn -0.161761 -0.669555 -0.724934
vn -0.108031 -0.765314 -0.634526
vn -0.108031 -0.765314 -0.634526
vn -0.620662 -0.775443 0.116044
vn -0.621638 -0.775894 0.107496
vn -0.61211 -0.770388 0.17839
vn -0.61211 -0.770388 0.17839
vn -0.231867 -0.79719 0.557428
vn -0.461033 -0.805689 0.371905
vn -0.530928 -0.765704 0.36306
vn -0.277875 -0.833204 0.478075
vn 0.378918 -0.749247 0.543185
vn 0.44762 -0.826285 0.341892
vn 7.66455e-09 -1 1.11713e-07
vn -9.62558e-08 -1 2.00226e-07
vn 3.3764e-09 -1 4.91819e-09
vn 9.95539e-08 -1 1.18083e-07
vn 1.63367e-07 -1 3.66188e-08
vn 4.08525e-08 -1 -6.53131e-08
vn -8.27707e-08 -1 -7.99277e-08
vn -1.53194e-07 -1 -6.12766e-08
vn 0.0503669 0.288193 -0.956247
vn 0.0431442 0.220983 -0.974323
vn 0.00491566 -0.121837 -0.992538
vn 0.00491566 -0.121837 -0.992538
vn 0.921132 0.089807 -0.378748
vn 0.921132 0.089807 -0.378748
vn 0.904428 0.181952 -0.385881
vn 0.878018 0.277846 -0.389725
vn -0.386491 0.267864 -0.882538
vn -0.393848 0.371795 -0.840626
vn -0.342512 -0.0269257 -0.939127
vn -0.342512 -0.0269258 -0.939127
vn -0.979775 0.197536 -0.0319338
vn -0.988973 0.145689 -0.0265956
vn -0.976672 -0.214434 0.0113533
vn -0.976672 -0.214434 0.0113533
vn -0.606581 0.0604477 0.792721
vn -0.593816 0.15402 0.789722
vn -0.608212 -0.266694 0.747631
vn -0.608212 -0.266694 0.747631
vn 0.26584 0.527377 0.806971
vn 0.267046 0.503977 0.821397
vn 0.256292 0.0612039 0.96466
vn 0.256292 0.0612039 0.96466
vn 0.925138 -0.110299 0.363254
vn 0.92936 -0.132566 0.344553
vn 0.935753 -0.043958 0.349906
vn 0.934605 -0.097691 0.342008
vn 0.0769079 0.54425 -0.83539
vn 0.0769079 0.54425 -0.83539
vn -0.392736 0.578845 -0.714631
vn -0.392736 0.578845 -0.714631
vn -0.916531 0.396556 -0.0521056
vn -0.916531 0.396556 -0.0521056
vn 0.887397 0.0143033 0.460784
vn 0.887397 0.0143033 0.460784
vn 0.863082 0.320682 -0.390196
vn 0.863082 0.320682 -0.390196
vn 0.0810755 -0.76551 -0.638295
vn 0.0810755 -0.76551 -0.638295
vn -0.203069 -0.581649 -0.787685
vn -0.203069 -0.581649 -0.787685
vn -0.623121 -0.776501 0.0936227
vn -0.623121 -0.776501 0.0936227
vn -0.431233 -0.820686 0.37485
vn -0.431233 -0.820686 0.37485
vn 0.212099 -0.507436 0.835178
vn 0.875755 0.303603 0.375339
vn 0.875755 0.303603 0.375339
vn 0.471862 -0.846641 -0.24606

# Mesh 'Stone_1_Stone_1' with 84 faces
g Stone_1_Stone_1
usemtl lambert1
f 1/1/1 2/2/2 3/3/2
f 3/3/2 4/4/3 1/1/1
f 5/5/4 3/3/5 2/2/6
f 2/2/6 6/6/7 5/5/4
f 7/7/8 5/5/4 6/6/7
f 6/6/7 8/8/9 7/7/8
f 9/9/10 7/7/11 8/8/12
f 8/8/12 10/10/13 9/9/10
f 11/11/14 9/9/10 10/10/13
f 10/10/13 12/12/15 11/11/14
f 13/13/16 11/11/14 12/12/15
f 12/12/15 14/14/17 13/13/16
f 4/4/18 13/13/18 14/14/19
f 14/14/19 1/1/20 4/4/18
f 3/3/21 5/5/22 15/15/23
f 5/5/22 7/7/24 15/15/23
f 7/7/24 9/9/25 15/15/23
f 9/9/25 11/11/26 15/15/23
f 11/11/26 13/13/27 15/15/23
f 13/13/27 4/4/28 15/15/23
f 4/4/28 3/3/21 15/15/23
f 16/16/29 17/17/30 18/18/31
f 18/18/31 19/19/32 16/16/29
f 20/20/33 18/18/34 17/17/35
f 17/17/35 21/21/36 20/20/33
f 22/22/37 16/16/38 19/19/39
f 19/19/39 23/23/40 22/22/37
f 24/24/41 22/22/42 23/23/43
f 23/23/43 25/25/44 24/24/41
f 26/26/45 24/24/46 25/25/47
f 25/25/47 27/27/48 26/26/45
f 28/28/49 26/26/45 27/27/48
f 27/27/48 29/29/50 28/28/49
f 21/21/36 28/28/49 29/29/50
f 29/29/50 20/20/33 21/21/36
f 19/19/51 18/18/52 30/30/53
f 23/23/54 19/19/51 30/30/53
f 25/25/55 23/23/54 30/30/53
f 27/27/56 25/25/55 30/30/53
f 29/29/57 27/27/56 30/30/53
f 20/20/58 29/29/57 30/30/53
f 18/18/52 20/20/58 30/30/53
f 31/31/59 32/32/60 33/33/61
f 33/33/61 34/34/62 31/31/59
f 35/35/63 33/33/64 32/32/65
f 32/32/65 36/36/66 35/35/63
f 37/37/67 31/31/68 34/34/69
f 34/34/69 38/38/70 37/37/67
f 39/39/71 37/37/72 38/38/73
f 38/38/73 40/40/74 39/39/71
f 41/41/75 39/39/76 40/40/77
f 40/40/77 42/42/78 41/41/75
f 43/43/79 41/41/80 42/42/81
f 42/42/81 44/44/82 43/43/79
f 36/36/83 43/43/84 44/44/85
f 44/44/85 35/35/86 36/36/83
f 2/2/87 32/32/60 31/31/59
f 31/31/59 6/6/88 2/2/87
f 6/6/89 31/31/68 37/37/67
f 37/37/67 8/8/90 6/6/89
f 8/8/91 37/37/72 39/39/71
f 39/39/71 10/10/92 8/8/91
f 10/10/13 39/39/76 41/41/75
f 41/41/75 12/12/15 10/10/13
f 12/12/15 41/41/80 43/43/79
f 43/43/79 14/14/17 12/12/15
f 14/14/93 43/43/84 36/36/83
f 36/36/83 1/1/94 14/14/93
f 1/1/95 36/36/66 32/32/65
f 32/32/65 2/2/96 1/1/95
f 33/45/97 17/17/30 16/16/29
f 16/16/29 34/46/98 33/45/97
f 34/46/99 16/16/38 22/22/37
f 22/22/37 38/47/100 34/46/99
f 38/47/101 22/22/42 24/24/41
f 24/24/41 40/48/102 38/47/101
f 40/48/103 24/24/46 26/26/45
f 26/26/45 42/49/104 40/48/103
f 42/49/105 26/26/45 28/28/49
f 28/28/49 44/50/105 42/49/105
f 44/50/85 28/28/106 21/21/107
f 21/21/107 35/51/86 44/50/85
f 35/51/108 21/21/36 17/17/35
f 17/17/35 33/45/108 35/51/108

